Genre: Action | Comedy | Crime
Language:English
IMDb:http://www.imdb.com/title/tt0471042/
Source:720p BluRay X264-AMIABLE Thanks!
Subtitles:English
Encoder:Tony


Format : AVI
Format/Info : Audio Video Interleave
File size : 1.39 GiB
Duration : 1h 44mn
Overall bit rate : 1 901 Kbps


Video
ID : 0
Format : MPEG-4 Visual
Format profile : Advanced Simple@L5
Format settings, BVOP : 1
Format settings, QPel : No
Format settings, GMC : No warppoints
Format settings, Matrix : Default (H.263)
Codec ID : XVID
Codec ID/Hint : XviD
Duration : 1h 44mn
Bit rate : 1 444 Kbps
Width : 624 pixels
Height : 264 pixels
Display aspect ratio : 2.35:1
Frame rate : 23.976 fps
Color space : YUV
Chroma subsampling : 4:2:0
Bit depth : 8 bits
Scan type : Progressive
Compression mode : Lossy
Bits/(Pixel*Frame) : 0.366
Stream size : 1.05 GiB (76%)
Writing library : XviD 1.2.1 (UTC 2008-12-04) 
http://img59.imageshack.us/img59/2838/vlcsnap2012020923h39m58.png 
http://img818.imageshack.us/img818/8179/vlcsnap2012020923h33m08.png
Audio
ID : 1
Format : AC-3
Format/Info : Audio Coding 3
Mode extension : CM (complete main)
Codec ID : 2000
Duration : 1h 44mn
Bit rate mode : Constant
Bit rate : 448 Kbps
Channel(s) : 6 channels
Channel positions : Front: L C R, Side: L R, LFE
Sampling rate : 48.0 KHz
Bit depth : 16 bits
Compression mode : Lossy
Stream size : 335 MiB (24%)
Alignment : Aligned on interleaves
Interleave, duration : 42 ms (1.00 video frame)
Interleave, preload duration : 512 ms



Plot:
When a group of hard working guys find out they've fallen victim to a wealthy business man's Ponzi scheme, they conspire to rob his high-rise residence
